<?xml version="1.0" encoding="UTF-8"?>
<svg id="Icon" xmlns="http://www.w3.org/2000/svg" viewBox="0 0 600 600">
  <defs>
    <style>
      .cls-1 {
        fill: #000526;
      }

      .cls-2 {
        fill: #f8f4eb;
      }
    </style>
  </defs>
  <rect class="cls-2" width="600" height="600" rx="101.92" ry="101.92"/>
  <g>
    <g>
      <path class="cls-1" d="M231.76,433.91h0c1.51-4.81,3.7-9.38,6.5-13.56h0c4.77-7.14,10.52-13.57,17.07-19.12h0c3.85-3.26,8.15-5.96,12.75-8.03h0c7.88-3.53,16.23-5.89,24.79-7.02l4.06-.54c2.54-.34,4.33-2.67,4-5.21l-18.27-138.42c-.34-2.54-2.67-4.33-5.21-4l-13.22,1.75c-2.54.34-4.33,2.67-4,5.21l14.98,113.47c.44,3.32-4.16,4.62-5.53,1.57l-46.85-104.61c-1.05-2.34-3.8-3.39-6.14-2.34l-14.2,6.36c-2.34,1.05-3.39,3.8-2.34,6.14l44.69,99.79c1.04,2.33-2.05,4.28-3.7,2.33l-70.74-83.56c-1.66-1.96-4.59-2.2-6.55-.54l-13.57,11.49c-1.96,1.66-2.2,4.59-.54,6.55l65.86,77.8c1.56,1.85-.74,4.43-2.75,3.08l-84.87-56.74c-2.13-1.43-5.02-.85-6.45,1.28l-11.12,16.63c-1.43,2.13-.85,5.02,1.28,6.45l76.17,50.93c2.5,1.67.64,5.55-2.23,4.64l-87.57-27.53c-2.45-.77-5.06.59-5.83,3.04l-6.66,21.2c-.77,2.45.59,5.06,3.04,5.83l68.03,21.39c1.12.35.86,2-.31,2h-72.95c-2.57,0-4.65,2.08-4.65,4.65v24.44c0,2.57,2.08,4.65,4.65,4.65h139.62c2.57,0,4.65-2.08,4.65-4.65h0c0-9.08,1.38-18.1,4.11-26.76Z"/>
      <rect class="cls-1" x="249.62" y="303.18" width="148.91" height="20.4" rx="4.65" ry="4.65" transform="translate(-37.87 582.14) rotate(-80.64)"/>
      <rect class="cls-1" x="289.64" y="317.02" width="148.91" height="18.18" rx="4.65" ry="4.65" transform="translate(-88.33 511.11) rotate(-64.09)"/>
      <rect class="cls-1" x="323.76" y="341.11" width="148.91" height="15.96" rx="4.65" ry="4.65" transform="translate(-127.66 411.48) rotate(-48.01)"/>
      <rect class="cls-1" x="350.13" y="373.63" width="148.91" height="13.74" rx="4.65" ry="4.65" transform="translate(-137.13 282.88) rotate(-32.01)"/>
      <rect class="cls-1" x="366.92" y="412.75" width="148.91" height="11.51" rx="4.65" ry="4.65" transform="translate(-96.47 134.46) rotate(-15.64)"/>
      <path class="cls-1" d="M372.35,460.73h0c0,2.53,2.08,4.57,4.65,4.57h139.62c2.57,0,4.65-2.05,4.65-4.57h0c0-2.53-2.08-4.57-4.65-4.57h-139.62c-2.57,0-4.65,2.05-4.65,4.57Z"/>
    </g>
    <path class="cls-1" d="M301.12,497.81c-.66-.58-1.63-.58-2.29,0-6.03,5.35-12.79,7.36-17.67,7.36H83.26c-2.5,0-4.52-2.03-4.52-4.52v-16.18c0-2.5,2.02-4.52,4.52-4.52h433.48c2.5,0,4.52,2.03,4.52,4.52v16.18c0,2.5-2.02,4.52-4.52,4.52h-197.95c-4.84,0-11.63-2-17.67-7.36Z"/>
  </g>
</svg>